<svg data-v-0dd9719b="" version="1.0" xmlns="http://www.w3.org/2000/svg" xmlns:xlink="http://www.w3.org/1999/xlink" width="100%" height="100%" viewBox="0 0 340.000000 250.000000" preserveAspectRatio="xMidYMid meet" color-interpolation-filters="sRGB" style="margin: auto;"> <rect data-v-0dd9719b="" x="0" y="0" width="100%" height="100%" fill="#fff" fill-opacity="1" class="background"></rect> <rect data-v-0dd9719b="" x="0" y="0" width="100%" height="100%" fill="url(#watermark)" fill-opacity="1" class="watermarklayer"></rect> <g data-v-0dd9719b="" fill="#333" class="icon-text-wrapper icon-svg-group iconsvg" transform="translate(55.12000274658203,95.02128601074219)"><g class="iconsvg-imagesvg" transform="translate(0,0)"><g><rect fill="#333" fill-opacity="0" stroke-width="2" x="0" y="0" width="60" height="59.95743022454058" class="image-rect"></rect> <svg x="0" y="0" width="60" height="59.95743022454058" filtersec="colorsb4504869356" class="image-svg-svg primary" style="overflow: visible;"><svg xmlns="http://www.w3.org/2000/svg" viewBox="-0.023873578757047653 0.013586394488811493 177.86448669433594 177.7374267578125"><path d="M151.05 152.34a86 86 0 0 1-27.64 18.44 88.73 88.73 0 0 1-71.34-1.05 90.1 90.1 0 0 1-27.26-19.25 1.19 1.19 0 0 1-.16-.34c2.39-.11 4.79-.1 7.19-.18a127.28 127.28 0 0 0 21.48-2.58 124.42 124.42 0 0 0 17.88-5.09 126.45 126.45 0 0 0 17.07-7.73 120.23 120.23 0 0 0 15.82-10.26A119.72 119.72 0 0 0 120 109.79a137.15 137.15 0 0 0 9.29-11.29c.91-1.26 2-2.42 2.45-4 .35 0 .49-.22.52-.55a.92.92 0 0 0 .54-.8c.92-1.39 1.89-2.74 2.72-4.18 1.75-3 3.43-6.12 5.13-9.19a7.73 7.73 0 0 1 .67.6 62.38 62.38 0 0 1 16.4 37.76 61.52 61.52 0 0 1-6.41 33.06c-.17.4-.4.73-.26 1.14z" fill="#fcc916"></path><path d="M27 25.3A81.41 81.41 0 0 1 42.6 13 86.91 86.91 0 0 1 72 1.63 89.09 89.09 0 0 1 152.77 27a3.2 3.2 0 0 1 .36.52 5.17 5.17 0 0 1-1 .16c-3.68-.31-7.33.19-11 .31a104.12 104.12 0 0 0-14.95 1.91 115.49 115.49 0 0 0-18.62 5.1 120.82 120.82 0 0 0-14.79 6.39 122.21 122.21 0 0 0-32.71 24.2 124.35 124.35 0 0 0-11 12.87c-.86 1.16-2.06 2.17-2.31 3.73l-.27.28-.27.3c-.29.06-.32.27-.3.51-.18 0-.25.09-.1.25a91.9 91.9 0 0 0-8.76 14.48c-.31-.29-.65-.55-.93-.87a62.35 62.35 0 0 1-13.74-25.32A62.91 62.91 0 0 1 24 32.16c.9-2.33 2-4.58 3-6.86z" fill="#2ddaf3"></path><path d="M27 25.3c-1 2.28-2.05 4.53-2.91 6.86a62.91 62.91 0 0 0-1.66 39.66 62.35 62.35 0 0 0 13.82 25.25c.28.32.62.58.93.87s.39.57.62.82a55.26 55.26 0 0 0 9.6 8.13 63.19 63.19 0 0 0 74.16-2.46 76 76 0 0 0 10.21-9.93c-.41 1.58-1.54 2.74-2.45 4a137.15 137.15 0 0 1-9.32 11.29 119.72 119.72 0 0 1-15.94 14.51 120.23 120.23 0 0 1-15.82 10.26 126.45 126.45 0 0 1-17.07 7.73 124.42 124.42 0 0 1-17.88 5.09A127.28 127.28 0 0 1 31.84 150c-2.4.08-4.8.07-7.19.18a59.35 59.35 0 0 1-7.5-8.79 86.53 86.53 0 0 1-15.8-37.19 87.44 87.44 0 0 1 9-56.75A89.49 89.49 0 0 1 26 26.15c.28-.31.62-.57 1-.85z" fill="#8c9916"></path><path d="M46.79 82.19c.25-1.56 1.45-2.57 2.31-3.73a124.35 124.35 0 0 1 11-12.87 122.21 122.21 0 0 1 32.67-24.18A120.82 120.82 0 0 1 107.56 35a115.49 115.49 0 0 1 18.62-5.08A104.12 104.12 0 0 1 141.13 28c3.66-.12 7.31-.62 11-.31a5.17 5.17 0 0 0 1-.16.35.35 0 0 1 .3.35 71.52 71.52 0 0 0-.47 7.17 129.15 129.15 0 0 1-2.84 17.84 114.82 114.82 0 0 1-6.53 20.13c-.93 2.15-1.6 4.44-3 6.36-.16-.14-.34-.26-.49-.41-15.8-15.45-34.59-21.58-56.4-17.89a60.39 60.39 0 0 0-32 16.23c-1.7 1.59-3.27 3.25-4.91 4.88z" fill="#29aae2"></path><path d="M140.56 79.41c1.43-1.92 2.1-4.21 3-6.36a114.82 114.82 0 0 0 6.53-20.13A129.15 129.15 0 0 0 153 35.08a71.52 71.52 0 0 1 .47-7.17 42.37 42.37 0 0 1 5.7 6.42 85.62 85.62 0 0 1 17.34 39.23q6.57 40.35-19.3 72.19a61.55 61.55 0 0 1-6.12 6.59c-.14-.41.09-.74.26-1.08a61.52 61.52 0 0 0 6.41-33.06 62.38 62.38 0 0 0-16.4-37.76 7.73 7.73 0 0 0-.67-.6z" fill="#585a8c"></path><path d="M132.26 94a1 1 0 0 1 .54-.8.92.92 0 0 1-.54.8z" fill="#8c9916"></path><path d="M131.76 94.52a.62.62 0 0 1 .52-.55c-.03.33-.17.54-.52.55z" fill="#8c9916"></path><path d="M46.32 82.71a.36.36 0 0 1-.3.51c-.02-.22-.02-.45.3-.51zM46.79 82.17l-.27.28z" fill="#29aae2"></path><path d="M46.55 82.43c0 .17 0 .32-.27.3zM46 83.21l-.1.25c-.11-.16-.04-.22.1-.25z" fill="#29aae2"></path></svg></svg> <!----></g></g> <g transform="translate(67,2.1896533966064453)"><g data-gra="path-name" fill-rule="" class="tp-name iconsvg-namesvg" transform="translate(0,0)"><g transform="scale(1)"><g><path d="M4.41-21.73L1.8-27.63 20.88-37.26 40.09-27.63 37.39-21.73 34.11-23.4 34.11-18.63 7.69-18.63 7.69-23.4 4.41-21.73ZM31.45-24.7L20.88-30.02 10.3-24.7 31.45-24.7ZM35.73-15.57L35.73 3.6 6.08 3.6 6.08-15.57 35.73-15.57ZM29.2-2.48L29.2-9.49 12.6-9.49 12.6-2.48 29.2-2.48ZM50.63-7.15L50.63 3.55 44.82 3.55 44.82-35.19 59.31-35.19 59.31 3.55 53.5 3.55 53.5-7.15 50.63-7.15ZM80.1-11.34L67.14-11.34 67.14-2.83 80.82-2.83 80.82 3.24 60.61 3.24 60.61-34.96 80.1-34.96 80.1-11.34ZM50.63-24.07L53.5-24.07 53.5-29.11 50.63-29.11 50.63-24.07ZM66.15-17.41L67.99-17.41 67.99-28.89 66.15-28.89 66.15-17.41ZM72.63-28.89L72.63-17.41 74.47-17.41 74.47-28.89 72.63-28.89ZM53.5-18.22L50.63-18.22 50.63-13 53.5-13 53.5-18.22ZM88.11-26.46L88.11-35.95 94.63-35.95 94.63-26.46 97.42-26.46 97.42-20.38 94.63-20.38 94.63-4.59 97.38-4.59 97.38 1.48 85.32 1.48 85.32-4.59 88.11-4.59 88.11-20.38 85.32-20.38 85.32-26.46 88.11-26.46ZM99.58-5.67L99.58-34.78 121.14-34.78 121.14-5.67 99.58-5.67ZM106.11-28.71L106.11-11.74 114.61-11.74 114.61-28.71 106.11-28.71ZM107.28-17.37L107.28-23.22 113.4-23.22 113.4-17.37 107.28-17.37ZM122.67 3.42L98.19 3.42 98.19-2.65 122.67-2.65 122.67 3.42ZM157.95-29.92L157.95-34.6 164.02-34.6 164.02-24.07 140.89-24.07 140.89-34.6 147.01-34.6 147.01-29.92 149.22-29.92 149.22-36.13 155.74-36.13 155.74-29.92 157.95-29.92ZM130.14-21.33L130.14-28.57 127.57-28.57 127.57-34.65 139.23-34.65 139.23-28.57 136.62-28.57 136.62-21.33 138.91-21.33 138.91-15.25 136.62-15.25 136.62-4.5 139.14-4.5 139.14 1.57 127.66 1.57 127.66-4.5 130.14-4.5 130.14-15.25 127.84-15.25 127.84-21.33 130.14-21.33ZM140.35-22.86L164.56-22.86 164.56-16.92 155.56-16.92 154.98-15.16 164.25-15.16 164.25 3.55 158.58 3.55 158.58-9.22 157.18-9.22 157.18 3.55 153.13 3.55 153.13-9.22 151.74-9.22 151.74 3.55 147.69 3.55 147.69-9.22 146.29-9.22 146.29 3.55 140.67 3.55 140.67-15.16 147.96-15.16 148.54-16.92 140.35-16.92 140.35-22.86Z" transform="translate(-1.7999999523162842, 37.2599983215332)"></path></g> <!----> <!----> <!----> <!----> <!----> <!----> <!----></g></g> <g data-gra="path-slogan" fill-rule="" class="tp-slogan iconsvg-slogansvg" fill="#333" transform="translate(4.999992370605469,46.8599967956543)"><rect x="0" height="1" y="3.8600001335144043" width="32.904998779296875"></rect> <rect height="1" y="3.8600001335144043" width="32.904998779296875" x="119.85499572753906"></rect> <g transform="translate(35.904998779296875,0)"><g transform="scale(1)"><path d="M2.06-5.06L6.56-5.06L6.56-8.58L7.73-8.58L7.73 0L6.56 0L6.56-3.98L2.06-3.98L2.06 0L0.89 0L0.89-8.58L2.06-8.58L2.06-5.06ZM10.83-1.03L15.98-1.03L15.98 0L9.66 0L9.66-8.58L15.89-8.58L15.89-7.59L10.83-7.59L10.83-4.92L15.52-4.92L15.52-3.89L10.83-3.89L10.83-1.03ZM23.02-3.89L18.80-3.89L18.80 0L17.63 0L17.63-8.58L23.58-8.58L23.58-7.59L18.80-7.59L18.80-4.92L23.02-4.92L23.02-3.89ZM26.06-1.03L31.22-1.03L31.22 0L24.89 0L24.89-8.58L31.13-8.58L31.13-7.59L26.06-7.59L26.06-4.92L30.75-4.92L30.75-3.89L26.06-3.89L26.06-1.03ZM32.91-8.58L34.08-8.58L34.08 0L32.91 0L32.91-8.58ZM41.58-7.59L38.67-7.59L38.67-8.58L45.61-8.58L45.61-7.59L42.70-7.59L42.70 0L41.58 0L41.58-7.59ZM52.31 0L51.47-2.48L48-2.48L47.11 0L45.94 0L49.17-8.58L50.48-8.58L53.58 0L52.31 0ZM49.73-7.31L48.38-3.52L51.05-3.52L49.78-7.31L49.73-7.31ZM56.02-8.58L60.33-1.64L60.33-8.58L61.45-8.58L61.45 0L60.14 0L55.78-6.94L55.73-6.94L55.73 0L54.61 0L54.61-8.58L56.02-8.58ZM67.36-3.70L64.55-3.70L64.55 0L63.38 0L63.38-8.58L67.36-8.58Q70.22-8.58 70.22-6.28L70.22-6.28Q70.22-4.88 69-4.22L69-4.22Q70.03-3.94 70.03-2.58L70.03-2.58L70.13-1.03Q70.08-0.38 70.55-0.19L70.55-0.19L70.55 0L69.09 0Q68.95-0.61 68.91-2.16L68.91-2.16Q68.95-3.70 67.36-3.70L67.36-3.70ZM67.45-7.64L64.55-7.64L64.55-4.69L67.27-4.69Q69-4.69 69-6.19L69-6.19Q69-7.64 67.45-7.64L67.45-7.64ZM77.53-3.19L77.53-8.58L78.70-8.58L78.70-3.05Q78.56 0.05 75.19 0.14L75.19 0.14Q72.05 0.05 71.91-2.86L71.91-2.86L71.91-8.58L73.08-8.58L73.08-3.19Q73.13-0.84 75.23-0.80L75.23-0.80Q77.53-0.84 77.53-3.19L77.53-3.19ZM80.67-8.58L81.84-8.58L81.84 0L80.67 0L80.67-8.58Z" transform="translate(-0.890625, 8.578125)"></path></g></g></g></g></g></svg>